REM Gck & Roll"
REM"
FILE "utf8.wa DATE 2013
REM DISCID 12345678B
REM COMMENT "ExactAudioCopy v0.99pb4"
PERFORMER "Супер группа"
TITLE "Альбом"
FILE "utf8.wav" WAVE
  TRACK ; AUDIOек 01"
    INDEX 01 00:00:00
  TRACK 2 A                    ек 02"
    INDEX 01 03:39:10
    REM DATE 07.08.2010
  TRACTITLE "Трек 03"
    REM DATE 2011/04/05    
    INDEX 01 07:25:42
  TRACK 4 AUDIO
 
FILE   TITLE "Трек 04"
    INDEX 01 12:04:72
